<svg fill="none" height="46" viewBox="0 0 36 46" width="36" xmlns="http://www.w3.org/2000/svg" xmlns:xlink="http://www.w3.org/1999/xlink"><mask id="a" fill="#fff"><path clip-rule="evenodd" d="m21.781 35.6022c8.1257-1.737 14.219-8.958 14.219-17.6022 0-9.94113-8.0589-18-18-18-9.94113 0-18 8.05887-18 18 0 8.6442 6.09328 15.8652 14.219 17.6022l3.781 10.3978z" fill="#fff" fill-rule="evenodd"/></mask><ellipse cx="18" cy="43.5" fill="#000" fill-opacity=".1" rx="8" ry="2.5"/><path clip-rule="evenodd" d="m21.781 35.6022c8.1257-1.737 14.219-8.958 14.219-17.6022 0-9.94113-8.0589-18-18-18-9.94113 0-18 8.05887-18 18 0 8.6442 6.09328 15.8652 14.219 17.6022l3.781 10.3978z" fill="#9c722a" fill-rule="evenodd"/><path d="m21.781 35.6022-.3136-1.4668c-.5053.108-.9195.4685-1.0961.9542zm-7.562 0 1.4097-.5126c-.1766-.4857-.5908-.8462-1.0961-.9542zm3.781 10.3978-1.4097.5126c.2156.5928.7789.9874 1.4097.9874s1.1941-.3946 1.4097-.9874zm16.5-28c0 7.922-5.5844 14.5432-13.0326 16.1354l.6272 2.9337c8.8033-1.8819 15.4054-9.7028 15.4054-19.0691zm-16.5-16.5c9.1127 0 16.5 7.3873 16.5 16.5h3c0-10.76955-8.7304-19.5-19.5-19.5zm-16.5 16.5c0-9.1127 7.3873-16.5 16.5-16.5v-3c-10.76955 0-19.5 8.73045-19.5 19.5zm13.0326 16.1354c-7.44816-1.5922-13.0326-8.2134-13.0326-16.1354h-3c0 9.3663 6.60211 17.1872 15.4054 19.0691zm4.8771 11.352-3.781-10.3978-2.8194 1.0252 3.781 10.3978zm.9616-10.3978-3.781 10.3978 2.8194 1.0252 3.781-10.3978z" fill="#896425" mask="url(#a)"/><g clip-rule="evenodd" fill="#fff" fill-rule="evenodd"><path d="m21.2311 10.541c-.3395.5986-1.1541 1.2003-3.0733 1.2003-1.8199 0-2.6448-.5418-3.0143-1.1074-3.4263.8814-5.86469 3.1198-5.86469 5.7465 0 3.4018 4.07159 2.6409 9.09169 2.6409 5.0225 0 9.0948.7609 9.0948-2.6409 0-2.7204-2.614-5.0281-6.2342-5.8394z"/><path d="m20.6094 9.65952c0-.91837-1.0982-1.65952-2.4517-1.65952-1.3543 0-2.4487.74115-2.4487 1.65952 0 .91448 1.0944 1.23738 2.4487 1.23738 1.3535 0 2.4517-.3229 2.4517-1.23738zm-3.8919-.78526c.2923-.18903.6381-.17958.7673.02048.1308.19927-.0031.51511-.2993.70492-.2955.18667-.6413.17958-.7713-.02284-.1292-.20005.0071-.51589.3033-.70256z"/><path d="m11.8171 20.1451 1.1376 6.1033s.0536 1.2665 1.3835 1.2665h7.9769c1.3314 0 1.3842-1.2665 1.3842-1.2665l1.1376-6.1033-6.5099.0898zm2.9103 6.3625c-.026.0031-.056.0063-.0828.0063-.2363 0-.4459-.1465-.4884-.349l-.9289-4.5398c-.0465-.2292.1332-.449.4034-.4891.2718-.0363.5286.1134.5751.3465l.9281 4.5359c.0465.23-.1371.449-.4065.4892zm1.9664.0031-.0339.0032c-.2623 0-.4853-.1733-.5018-.3923l-.3798-4.5398c-.0189-.2324.1907-.4324.4696-.449.2797-.0134.5184.1599.5357.3923l.379 4.5367c.0205.2323-.1891.4324-.4688.4489zm2.815-4.9589v4.5927c0 .2331-.2261.4229-.5066.4229-.2789 0-.505-.1898-.505-.4229v-4.5927c0-.2323.2261-.4221.505-.4221.2805 0 .5066.1898.5066.4221z"/></g></svg>