<svg fill="none" height="46" viewBox="0 0 36 46" width="36" xmlns="http://www.w3.org/2000/svg" xmlns:xlink="http://www.w3.org/1999/xlink"><mask id="a" fill="#fff"><path clip-rule="evenodd" d="m21.781 35.6022c8.1257-1.737 14.219-8.958 14.219-17.6022 0-9.94113-8.0589-18-18-18-9.94113 0-18 8.05887-18 18 0 8.6442 6.09328 15.8652 14.219 17.6022l3.781 10.3978z" fill="#fff" fill-rule="evenodd"/></mask><mask id="b" height="16" maskUnits="userSpaceOnUse" width="16" x="20" y="0"><path d="m28 0c4.4183 0 8 3.58173 8 8 0 4.4183-3.5817 8-8 8s-8-3.5817-8-8c0-4.41827 3.5817-8 8-8z" fill="#fff"/></mask><ellipse cx="18" cy="43.5" fill="#000" fill-opacity=".1" rx="8" ry="2.5"/><path clip-rule="evenodd" d="m21.781 35.6022c8.1257-1.737 14.219-8.958 14.219-17.6022 0-9.94113-8.0589-18-18-18-9.94113 0-18 8.05887-18 18 0 8.6442 6.09328 15.8652 14.219 17.6022l3.781 10.3978z" fill="#20ae9f" fill-rule="evenodd"/><path d="m21.781 35.6022-.3136-1.4668c-.5053.108-.9195.4685-1.0961.9542zm-7.562 0 1.4097-.5126c-.1766-.4857-.5908-.8462-1.0961-.9542zm3.781 10.3978-1.4097.5126c.2156.5928.7789.9874 1.4097.9874s1.1941-.3946 1.4097-.9874zm16.5-28c0 7.922-5.5844 14.5432-13.0326 16.1354l.6272 2.9337c8.8033-1.8819 15.4054-9.7028 15.4054-19.0691zm-16.5-16.5c9.1127 0 16.5 7.3873 16.5 16.5h3c0-10.76955-8.7304-19.5-19.5-19.5zm-16.5 16.5c0-9.1127 7.3873-16.5 16.5-16.5v-3c-10.76955 0-19.5 8.73045-19.5 19.5zm13.0326 16.1354c-7.44816-1.5922-13.0326-8.2134-13.0326-16.1354h-3c0 9.3663 6.60211 17.1872 15.4054 19.0691zm4.8771 11.352-3.781-10.3978-2.8194 1.0252 3.781 10.3978zm.9616-10.3978-3.781 10.3978 2.8194 1.0252 3.781-10.3978z" fill="#1da394" mask="url(#a)"/><g clip-rule="evenodd" fill="#fff" fill-rule="evenodd"><path d="m17.1948 10.867c-4.3844 0-8.0242 3.2093-8.74271 7.4219h17.48531c-.7224-4.2126-4.3615-7.4219-8.7426-7.4219z"/><path d="m7.10205 19.5329h20.18215l-.0599 1.197h-19.87881z"/><path d="m17.9832 10.2552c0 .5418-.4356.9813-.9714.9813-.5389 0-.9714-.4395-.9714-.9813 0-.54184.4325-.98445.9714-.98445.5358 0 .9714.44261.9714.98445z"/><path d="m22.6772 28.7874h-4.2157s-1.0108-2.2115-4.044-4.4229l-3.8794-2.8935s2.5282-.5111 5.2266 1.6995l2.358 1.3641s1.5197 1.19 3.0371-.8514l1.181-2.0421s1.6836-1.19 1.177.6789c0 0-1.5158 5.2766-.8406 6.4674z"/></g><g mask="url(#b)"><path clip-rule="evenodd" d="m12 24h32v-32.00001h-32z" fill="#268b42" fill-rule="evenodd"/></g><path d="m27.1221 12.0273h1.5928l2.9079-8.4272h-1.562l-2.0867 6.785h-.0679l-2.0929-6.785h-1.6114z" fill="#fefefe"/><circle cx="28" cy="8" r="7.5" stroke="#207335"/></svg>