<svg fill="none" height="46" viewBox="0 0 36 46" width="36" xmlns="http://www.w3.org/2000/svg" xmlns:xlink="http://www.w3.org/1999/xlink"><mask id="a" fill="#fff"><path clip-rule="evenodd" d="m21.781 35.6022c8.1257-1.737 14.219-8.958 14.219-17.6022 0-9.94113-8.0589-18-18-18-9.94113 0-18 8.05887-18 18 0 8.6442 6.09328 15.8652 14.219 17.6022l3.781 10.3978z" fill="#fff" fill-rule="evenodd"/></mask><mask id="b" height="16" maskUnits="userSpaceOnUse" width="16" x="20" y="0"><path d="m28 0c4.4183 0 8 3.58173 8 8 0 4.4183-3.5817 8-8 8s-8-3.5817-8-8c0-4.41827 3.5817-8 8-8z" fill="#fff"/></mask><ellipse cx="18" cy="43.5" fill="#000" fill-opacity=".1" rx="8" ry="2.5"/><path clip-rule="evenodd" d="m21.781 35.6022c8.1257-1.737 14.219-8.958 14.219-17.6022 0-9.94113-8.0589-18-18-18-9.94113 0-18 8.05887-18 18 0 8.6442 6.09328 15.8652 14.219 17.6022l3.781 10.3978z" fill="#77ab41" fill-rule="evenodd"/><path d="m21.781 35.6022-.3136-1.4668c-.5053.108-.9195.4685-1.0961.9542zm-7.562 0 1.4097-.5126c-.1766-.4857-.5908-.8462-1.0961-.9542zm3.781 10.3978-1.4097.5126c.2156.5928.7789.9874 1.4097.9874s1.1941-.3946 1.4097-.9874zm16.5-28c0 7.922-5.5844 14.5432-13.0326 16.1354l.6272 2.9337c8.8033-1.8819 15.4054-9.7028 15.4054-19.0691zm-16.5-16.5c9.1127 0 16.5 7.3873 16.5 16.5h3c0-10.76955-8.7304-19.5-19.5-19.5zm-16.5 16.5c0-9.1127 7.3873-16.5 16.5-16.5v-3c-10.76955 0-19.5 8.73045-19.5 19.5zm13.0326 16.1354c-7.44816-1.5922-13.0326-8.2134-13.0326-16.1354h-3c0 9.3663 6.60211 17.1872 15.4054 19.0691zm4.8771 11.352-3.781-10.3978-2.8194 1.0252 3.781 10.3978zm.9616-10.3978-3.781 10.3978 2.8194 1.0252 3.781-10.3978z" fill="#6a993a" mask="url(#a)"/><g clip-rule="evenodd" fill="#fff" fill-rule="evenodd"><path d="m20.6334 20.1157c.2465 0 .4452-.2019.4452-.4516v-8.2125c0-.2497-.1987-.4516-.4452-.4516h-12.24435c-.24652 0-.4452.2019-.4452.4516v8.2125c0 .2497.19868.4516.4452.4516z"/><path d="m28.9438 17.4764-3.4148-3.4642-3.4133-.0754v7.2332h-14.02515v1.9579h1.75649c.44516-.9347 1.38346-1.5809 2.47256-1.5809s2.0306.6462 2.4725 1.5809h7.6732c.4452-.9347 1.3834-1.5809 2.4725-1.5809 1.0883 0 2.0274.6462 2.4709 1.5809h1.5351zm-1.9592 1.2736-3.307-.0137-.004-2.9818h1.6056l1.7054 1.7357z"/><path d="m24.9376 22.6013c-.9448 0-1.7079.7766-1.7079 1.7317 0 .9582.7631 1.7325 1.7079 1.7325.9415 0 1.7054-.7743 1.7054-1.7325 0-.9551-.7639-1.7317-1.7054-1.7317z"/><path d="m12.3197 22.6013c-.9415 0-1.7054.7766-1.7054 1.7317 0 .9582.7639 1.7325 1.7054 1.7325.9447 0 1.7078-.7743 1.7078-1.7325 0-.9551-.7631-1.7317-1.7078-1.7317z"/></g><g mask="url(#b)"><path clip-rule="evenodd" d="m12 24h32v-32.00001h-32z" fill="#268b42" fill-rule="evenodd"/></g><path d="m27.1221 12.0273h1.5928l2.9079-8.4272h-1.562l-2.0867 6.785h-.0679l-2.0929-6.785h-1.6114z" fill="#fefefe"/><circle cx="28" cy="8" r="7.5" stroke="#207335"/></svg>