<svg fill="none" height="46" viewBox="0 0 36 46" width="36" xmlns="http://www.w3.org/2000/svg" xmlns:xlink="http://www.w3.org/1999/xlink"><mask id="a" fill="#fff"><path clip-rule="evenodd" d="m21.781 35.6022c8.1257-1.737 14.219-8.958 14.219-17.6022 0-9.94113-8.0589-18-18-18-9.94113 0-18 8.05887-18 18 0 8.6442 6.09328 15.8652 14.219 17.6022l3.781 10.3978z" fill="#fff" fill-rule="evenodd"/></mask><ellipse cx="18" cy="43.5" fill="#000" fill-opacity=".1" rx="8" ry="2.5"/><path clip-rule="evenodd" d="m21.781 35.6022c8.1257-1.737 14.219-8.958 14.219-17.6022 0-9.94113-8.0589-18-18-18-9.94113 0-18 8.05887-18 18 0 8.6442 6.09328 15.8652 14.219 17.6022l3.781 10.3978z" fill="#b569f5" fill-rule="evenodd"/><path d="m21.781 35.6022-.3136-1.4668c-.5053.108-.9195.4685-1.0961.9542zm-7.562 0 1.4097-.5126c-.1766-.4857-.5908-.8462-1.0961-.9542zm3.781 10.3978-1.4097.5126c.2156.5928.7789.9874 1.4097.9874s1.1941-.3946 1.4097-.9874zm16.5-28c0 7.922-5.5844 14.5432-13.0326 16.1354l.6272 2.9337c8.8033-1.8819 15.4054-9.7028 15.4054-19.0691zm-16.5-16.5c9.1127 0 16.5 7.3873 16.5 16.5h3c0-10.76955-8.7304-19.5-19.5-19.5zm-16.5 16.5c0-9.1127 7.3873-16.5 16.5-16.5v-3c-10.76955 0-19.5 8.73045-19.5 19.5zm13.0326 16.1354c-7.44816-1.5922-13.0326-8.2134-13.0326-16.1354h-3c0 9.3663 6.60211 17.1872 15.4054 19.0691zm4.8771 11.352-3.781-10.3978-2.8194 1.0252 3.781 10.3978zm.9616-10.3978-3.781 10.3978 2.8194 1.0252 3.781-10.3978z" fill="#a45ede" mask="url(#a)"/><path clip-rule="evenodd" d="m9.59023 11h12.12837.3074v.0237c.5297.0821 1.0105.3737 1.3307.8174l3.9281 4.5461 2.5398 1.1374c.6502.2956 1.0698.9462 1.0741 1.6652v3.923c0 .6545-.5263 1.1851-1.1754 1.1851h-1.304c-.0001-1.6024-1.2884-2.9013-2.8776-2.9013-1.5893 0-2.8776 1.2989-2.8776 2.9013h-8.6496c0-1.6024-1.2883-2.9013-2.8776-2.9013-1.58921 0-2.87755 1.2989-2.87755 2.9013h-.1248c-1.17888 0-2.13455-.9635-2.13455-2.1521v-7.5259c0-1.9992 1.6074-3.6199 3.59023-3.6199zm8.19377 5.9896c-.0691-.0696-.1627-.1087-.2603-.1087-.202.0018-.3648.1675-.3648.3712v1.2736c-.0019.1999-.1631.3609-.3614.3609h-7.89311c-.19696-.0018-.35618-.1623-.35801-.3609v-1.2736c0-.0985-.03878-.1929-.10783-.2625-.06904-.0696-.16267-.1087-.26031-.1087-.0988-.0019-.19418.0364-.26469.1063-.07051.0698-.11021.1652-.11021.2649v1.5119c0 .5022.40375.9093.90178.9093h8.28488c.4981 0 .9018-.4071.9018-.9093v-1.5119c0-.0985-.0388-.1929-.1078-.2625zm-4.8805-4.2664 3.749.034 1.6178 2.6358s.3107.9058-.8747 1.0284c0 0-1.0707.0443-1.3814-.5891-.1605.4148-.5734.6729-1.0133.6334 0 0-.9828 0-1.1179-.5892v.0008c-.0193.0495-.1894.4419-.8583.5254l-.1313.0119h-.1283c-.8275-.0477-.9896-.5381-.9896-.5381l-.0006.0008-.0295.0921c-.1988.4671-.987.4946-1.0791.4962l-.0088.0001c-.4404.0419-.85456-.2171-1.0132-.6334-.3141.6334-1.38475.5891-1.38475.5891-1.16185-.1328-.84774-1.0386-.84774-1.0386l1.60767-2.6256 3.75572-.034zm1.9725.4529h-1.118l.2669 1.9921s0 .8139.9389.7254c0 0 .6755.0442.4931-.9059zm-3.0938-.0034h-1.1179l-.5809 1.8116c-.15862.8262.3315.9005.462.9058l.0311.0001c.9389.0885.9389-.7254.9389-.7254zm11.2199.16c-.3062-.4642-.8184-.7479-1.3713-.7594h-1.638v3.8583h4.9615zm2.5397 9.2489c.9401 0 1.7022.7684 1.7022 1.7163 0 .9478-.7621 1.7163-1.7022 1.7163s-1.7022-.7685-1.7022-1.7163c0-.9479.7621-1.7163 1.7022-1.7163zm-12.7025 1.7163c0-.9479-.7621-1.7163-1.7023-1.7163-.9401 0-1.70219.7684-1.70219 1.7163 0 .9478.76209 1.7163 1.70219 1.7163.9402 0 1.7023-.7685 1.7023-1.7163z" fill="#fff" fill-rule="evenodd"/></svg>