<svg fill="none" height="46" viewBox="0 0 36 46" width="36" xmlns="http://www.w3.org/2000/svg" xmlns:xlink="http://www.w3.org/1999/xlink"><mask id="a" fill="#fff"><path clip-rule="evenodd" d="m21.781 35.6022c8.1257-1.737 14.219-8.958 14.219-17.6022 0-9.94113-8.0589-18-18-18-9.94113 0-18 8.05887-18 18 0 8.6442 6.09328 15.8652 14.219 17.6022l3.781 10.3978z" fill="#fff" fill-rule="evenodd"/></mask><ellipse cx="18" cy="43.5" fill="#000" fill-opacity=".1" rx="8" ry="2.5"/><path clip-rule="evenodd" d="m21.781 35.6022c8.1257-1.737 14.219-8.958 14.219-17.6022 0-9.94113-8.0589-18-18-18-9.94113 0-18 8.05887-18 18 0 8.6442 6.09328 15.8652 14.219 17.6022l3.781 10.3978z" fill="#d6b728" fill-rule="evenodd"/><path d="m21.781 35.6022-.3136-1.4668c-.5053.108-.9195.4685-1.0961.9542zm-7.562 0 1.4097-.5126c-.1766-.4857-.5908-.8462-1.0961-.9542zm3.781 10.3978-1.4097.5126c.2156.5928.7789.9874 1.4097.9874s1.1941-.3946 1.4097-.9874zm16.5-28c0 7.922-5.5844 14.5432-13.0326 16.1354l.6272 2.9337c8.8033-1.8819 15.4054-9.7028 15.4054-19.0691zm-16.5-16.5c9.1127 0 16.5 7.3873 16.5 16.5h3c0-10.76955-8.7304-19.5-19.5-19.5zm-16.5 16.5c0-9.1127 7.3873-16.5 16.5-16.5v-3c-10.76955 0-19.5 8.73045-19.5 19.5zm13.0326 16.1354c-7.44816-1.5922-13.0326-8.2134-13.0326-16.1354h-3c0 9.3663 6.60211 17.1872 15.4054 19.0691zm4.8771 11.352-3.781-10.3978-2.8194 1.0252 3.781 10.3978zm.9616-10.3978-3.781 10.3978 2.8194 1.0252 3.781-10.3978z" fill="#cbae26" mask="url(#a)"/><g clip-rule="evenodd" fill="#fff" fill-rule="evenodd"><path d="m29.8552 16.1863-3.3838-5.4764-7.9038-.0907v-.0025h-.2682v.0025l-7.9031.0907-3.38042 5.4764s-.65859 1.8884 1.78429 2.1697c0 0 2.25553.0949 2.91333-1.2259 0 0 .373 1.3208 2.1573 1.3208 0 0 2.0665 0 2.3496-1.2268 0 0 .3442 1.0247 2.079 1.122v.0099l.1361-.0033.1321.0033v-.0099c1.7356-.0973 2.0805-1.122 2.0805-1.122.2831 1.2268 2.3488 1.2268 2.3488 1.2268 1.7843 0 2.1615-1.3208 2.1615-1.3208.6569 1.3208 2.9092 1.2259 2.9092 1.2259 2.4429-.2813 1.7876-2.1697 1.7876-2.1697zm-14.1968-.4736s0 1.6995-1.9725 1.5114c0 0-1.4112.0941-1.0349-1.8876l1.2198-3.776h2.3496zm7.2626 1.5114c-1.9733.1881-1.9733-1.5114-1.9733-1.5114l-.5645-4.1522h2.3488l1.2206 3.776c.3755 1.9817-1.0316 1.8876-1.0316 1.8876z"/><path d="m11.0553 24.4001h3.0033v-3.0204h-3.0033z"/><path d="m28.1369 25.4941v-5.7197h-1.129v5.7576l.0074.0908c.0033.0214.0702.5016-.2715.8951-.3458.4043-1.0349.6204-1.9906.6204h-4.1182v-7.1758h-4.8825v7.1758h-3.8541c-.9516 0-1.6416-.2161-1.98984-.6204-.33755-.3935-.27152-.8737-.27152-.8877l.01073-5.8558h-1.12901v5.7197c-.02889.2335-.07345 1.0345.51829 1.7416.57523.6864 1.53675 1.0345 2.86135 1.0345h12.8548c1.3279 0 2.2902-.3481 2.8646-1.0345.5926-.7071.5472-1.5081.5191-1.7416z"/><path d="m22.3239 24.4001h3.0082v-3.0204h-3.0082z"/></g></svg>