<svg fill="none" height="46" viewBox="0 0 36 46" width="36" xmlns="http://www.w3.org/2000/svg" xmlns:xlink="http://www.w3.org/1999/xlink"><mask id="a" fill="#fff"><path clip-rule="evenodd" d="m21.781 35.6022c8.1257-1.737 14.219-8.958 14.219-17.6022 0-9.94113-8.0589-18-18-18-9.94113 0-18 8.05887-18 18 0 8.6442 6.09328 15.8652 14.219 17.6022l3.781 10.3978z" fill="#fff" fill-rule="evenodd"/></mask><ellipse cx="18" cy="43.5" fill="#000" fill-opacity=".1" rx="8" ry="2.5"/><path clip-rule="evenodd" d="m21.781 35.6022c8.1257-1.737 14.219-8.958 14.219-17.6022 0-9.94113-8.0589-18-18-18-9.94113 0-18 8.05887-18 18 0 8.6442 6.09328 15.8652 14.219 17.6022l3.781 10.3978z" fill="#ef447f" fill-rule="evenodd"/><path d="m21.781 35.6022-.3136-1.4668c-.5053.108-.9195.4685-1.0961.9542zm-7.562 0 1.4097-.5126c-.1766-.4857-.5908-.8462-1.0961-.9542zm3.781 10.3978-1.4097.5126c.2156.5928.7789.9874 1.4097.9874s1.1941-.3946 1.4097-.9874zm16.5-28c0 7.922-5.5844 14.5432-13.0326 16.1354l.6272 2.9337c8.8033-1.8819 15.4054-9.7028 15.4054-19.0691zm-16.5-16.5c9.1127 0 16.5 7.3873 16.5 16.5h3c0-10.76955-8.7304-19.5-19.5-19.5zm-16.5 16.5c0-9.1127 7.3873-16.5 16.5-16.5v-3c-10.76955 0-19.5 8.73045-19.5 19.5zm13.0326 16.1354c-7.44816-1.5922-13.0326-8.2134-13.0326-16.1354h-3c0 9.3663 6.60211 17.1872 15.4054 19.0691zm4.8771 11.352-3.781-10.3978-2.8194 1.0252 3.781 10.3978zm.9616-10.3978-3.781 10.3978 2.8194 1.0252 3.781-10.3978z" fill="#de3f76" mask="url(#a)"/><g clip-rule="evenodd" fill="#fff" fill-rule="evenodd"><path d="m13.2328 11.2288c.7202-.3784 1.5402-.5925 2.4103-.5925.7109 0 1.3885.143 2.0055.4017.617-.2587 1.2946-.4017 2.0056-.4017.8382 0 1.63.1987 2.3309.5516.028-.2013.0425-.4069.0425-.616 0-2.44199-1.9796-4.42163-4.4216-4.42163-2.4421 0-4.4217 1.97964-4.4217 4.42163 0 .2232.0165.4425.0485.6569zm1.2312 4.5977c0-1.7812.8972-3.3528 2.2643-4.2875-.3472-.0877-.7108-.1342-1.0852-.1342-2.442 0-4.4217 1.9797-4.4217 4.4217 0 1.1507.4396 2.1987 1.1599 2.9853h3.0266c-.5947-.8443-.9439-1.874-.9439-2.9853zm1.7143 3.8545h-2.7033c.6406.3611 1.3803.5671 2.1681.5671.3744 0 .738-.0465 1.0852-.1341-.1931-.132-.3768-.2768-.55-.433zm1.3084 0h4.3362c-.6407.3611-1.3803.5671-2.1681.5671s-1.5275-.206-2.1681-.5671zm5.4298-.8692h-6.5235c-.7203-.7866-1.1599-1.8346-1.1599-2.9853 0-2.442 1.9797-4.4217 4.4217-4.4217s4.4216 1.9797 4.4216 4.4217c0 1.1507-.4395 2.1987-1.1599 2.9853z"/><path d="m22.7614 19.6809h-5.528l-1.1632 2.8743.856 1.8819.489-1.2083c.0901-.2227.3453-.3308.5699-.2414.2245.0894.3335.3424.2434.5652l-.8026 1.9832 1.4614 3.2132zm-6.2879 5.8748-.856-1.882-.6895 1.7038.8376 1.9273zm-.2189 2.8742.7186-1.7756 1.4484 3.1846-.0011.0026c-.1355.3077-.44.5063-.7762.5063s-.6407-.1986-.7762-.5063zm.0345-8.749h-1.5262l.8076 1.7756zm-2.4876 0h-1.3493l1.9868 4.5714.6788-1.6773z"/></g></svg>