<svg fill="none" height="46" viewBox="0 0 36 46" width="36" xmlns="http://www.w3.org/2000/svg" xmlns:xlink="http://www.w3.org/1999/xlink"><mask id="a" fill="#fff"><path clip-rule="evenodd" d="m21.781 35.6022c8.1257-1.737 14.219-8.958 14.219-17.6022 0-9.94113-8.0589-18-18-18-9.94113 0-18 8.05887-18 18 0 8.6442 6.09328 15.8652 14.219 17.6022l3.781 10.3978z" fill="#fff" fill-rule="evenodd"/></mask><ellipse cx="18" cy="43.5" fill="#000" fill-opacity=".1" rx="8" ry="2.5"/><path clip-rule="evenodd" d="m21.781 35.6022c8.1257-1.737 14.219-8.958 14.219-17.6022 0-9.94113-8.0589-18-18-18-9.94113 0-18 8.05887-18 18 0 8.6442 6.09328 15.8652 14.219 17.6022l3.781 10.3978z" fill="#fbb040" fill-rule="evenodd"/><path d="m21.781 35.6022-.3136-1.4668c-.5053.108-.9195.4685-1.0961.9542zm-7.562 0 1.4097-.5126c-.1766-.4857-.5908-.8462-1.0961-.9542zm3.781 10.3978-1.4097.5126c.2156.5928.7789.9874 1.4097.9874s1.1941-.3946 1.4097-.9874zm16.5-28c0 7.922-5.5844 14.5432-13.0326 16.1354l.6272 2.9337c8.8033-1.8819 15.4054-9.7028 15.4054-19.0691zm-16.5-16.5c9.1127 0 16.5 7.3873 16.5 16.5h3c0-10.76955-8.7304-19.5-19.5-19.5zm-16.5 16.5c0-9.1127 7.3873-16.5 16.5-16.5v-3c-10.76955 0-19.5 8.73045-19.5 19.5zm13.0326 16.1354c-7.44816-1.5922-13.0326-8.2134-13.0326-16.1354h-3c0 9.3663 6.60211 17.1872 15.4054 19.0691zm4.8771 11.352-3.781-10.3978-2.8194 1.0252 3.781 10.3978zm.9616-10.3978-3.781 10.3978 2.8194 1.0252 3.781-10.3978z" fill="#f1a93d" mask="url(#a)"/><g clip-rule="evenodd" fill-rule="evenodd"><path d="m19.072 13.5098-6.6529-.0342c-.3911-.0015-.7638.1659-1.0225.4592s-.3782.684-.3279 1.0719l1.6719 13.4732c.0895.6779.6696 1.1832 1.3534 1.1789l7.3491.0367c.6857.0022 1.2652-.5076 1.3503-1.1881l1.6811-13.4548c.0472-.3843-.072-.7704-.3277-1.0611-.2556-.2908-.6233-.4584-1.0104-.4608l-.6995-.0036-1.3892 4.7922c.2068.0045.404.0916.5468.2431.1547.1641.2302.3875.2068.6118l-1.0013 7.4072c-.0715.391-.4204.6694-.8176.6522l-4.4369-.0214c-.3947.0122-.7388-.2666-.8084-.6553l-1.0258-7.4317c-.0191-.2241.0601-.4453.217-.6063.157-.1611.3761-.246.6005-.2327l3.1539.0164z" fill="#fff"/><path d="m10.2681 17.4639c-.31059-.147-.59236-.3349-.84057-.555l5.08817-4.9765c.1484.1751.2814.3664.3961.5726l-.0024-.0061.0025.006.0551.1041c.151.2325.4487.3206.7019.2077s.3867-.3932.3147-.6609v-.0001c-.0398-.0796-.0796-.1592-.1255-.2357l-.0054-.0062c-.9971-1.7388-2.9914-2.64967-4.9591-2.26387-1.97125.38647-3.47581 1.98807-3.73849 3.97957-.26269 1.9915.77514 3.9285 2.57873 4.8129-.01166-.009-.02291-.0185-.03373-.0283.01593.0093.0323.0188.0491.0283h.00005c.07347.0368.14695.0735.22042.1072.16712.0394.34312 0 .47752-.1069.1343-.1069.2123-.2695.2114-.4412l-.0122-.0031c.0015-.2127-.1169-.4081-.3062-.5052l-.0337-.0153c-.0121-.0048-.0249-.0094-.0384-.014zm1.0422-6.7585c.8825-.1212 1.7593.094 2.4723.5721l-2.103 2.0569zm-.9564.2707c-.85205.376-1.52335 1.0722-1.86939 1.9332l2.18329.3016zm-1.56475 5.1853c-.4266-.6675-.62954-1.4739-.54179-2.2986l2.53404.3501z" fill="#fff"/><path d="m21.4252 10.1598 5.188-1.38163c.2701-.07192.5478.08691.6203.35477s-.0876.54331-.3577.61524l-4.9062 1.30652-3.4859 12.0254c-.0773.2666-.3578.4205-.6265.3439-.2688-.0766-.424-.3548-.3467-.6214l3.5444-12.2273c.0273-.1936.168-.3616.3703-.4155z" fill="#fefefe"/></g></svg>