<svg fill="none" height="46" viewBox="0 0 36 46" width="36" xmlns="http://www.w3.org/2000/svg" xmlns:xlink="http://www.w3.org/1999/xlink"><mask id="a" fill="#fff"><path clip-rule="evenodd" d="m21.781 35.6022c8.1257-1.737 14.219-8.958 14.219-17.6022 0-9.94113-8.0589-18-18-18-9.94113 0-18 8.05887-18 18 0 8.6442 6.09328 15.8652 14.219 17.6022l3.781 10.3978z" fill="#fff" fill-rule="evenodd"/></mask><mask id="b" height="16" maskUnits="userSpaceOnUse" width="16" x="20" y="0"><path d="m28 0c4.4183 0 8 3.58173 8 8 0 4.4183-3.5817 8-8 8s-8-3.5817-8-8c0-4.41827 3.5817-8 8-8z" fill="#fff"/></mask><ellipse cx="18" cy="43.5" fill="#000" fill-opacity=".1" rx="8" ry="2.5"/><path clip-rule="evenodd" d="m21.781 35.6022c8.1257-1.737 14.219-8.958 14.219-17.6022 0-9.94113-8.0589-18-18-18-9.94113 0-18 8.05887-18 18 0 8.6442 6.09328 15.8652 14.219 17.6022l3.781 10.3978z" fill="#903489" fill-rule="evenodd"/><path d="m21.781 35.6022-.3136-1.4668c-.5053.108-.9195.4685-1.0961.9542zm-7.562 0 1.4097-.5126c-.1766-.4857-.5908-.8462-1.0961-.9542zm3.781 10.3978-1.4097.5126c.2156.5928.7789.9874 1.4097.9874s1.1941-.3946 1.4097-.9874zm16.5-28c0 7.922-5.5844 14.5432-13.0326 16.1354l.6272 2.9337c8.8033-1.8819 15.4054-9.7028 15.4054-19.0691zm-16.5-16.5c9.1127 0 16.5 7.3873 16.5 16.5h3c0-10.76955-8.7304-19.5-19.5-19.5zm-16.5 16.5c0-9.1127 7.3873-16.5 16.5-16.5v-3c-10.76955 0-19.5 8.73045-19.5 19.5zm13.0326 16.1354c-7.44816-1.5922-13.0326-8.2134-13.0326-16.1354h-3c0 9.3663 6.60211 17.1872 15.4054 19.0691zm4.8771 11.352-3.781-10.3978-2.8194 1.0252 3.781 10.3978zm.9616-10.3978-3.781 10.3978 2.8194 1.0252 3.781-10.3978z" fill="#7b2d75" mask="url(#a)"/><g clip-rule="evenodd" fill="#fff" fill-rule="evenodd"><path d="m17.0384 17.5977h1.816 3.3798s.067-1.6696-.1568-2.0185c-.2521-.3859-1.0935-.6284-1.9294-.971-.8343-.3458-1.0305-.4655-1.0305-.4655l-.0102-.7915s.3127-.2394.4096-.9844c.1962.0535.4018-.289.4121-.4725.0102-.1757-.0268-.6616-.2663-.612.0504-.3654.0867-.6946.067-.871-.0599-.63478-.6926-1.30656-1.6663-1.30656-.9762 0-1.6072.67178-1.6702 1.30656-.0174.1764.0196.5056.0669.871-.2371-.0496-.2773.4363-.2671.612.0134.1835.2159.526.4129.4725.0961.745.4096.9844.4096.9844l-.007.7915s-.2002.1197-1.0321.4655c-.8343.3426-1.6789.5851-1.9287.971-.2261.3489-.1567 2.0185-.1567 2.0185z"/><path d="m12.3645 22.5228c-.8351-.3426-1.0345-.4623-1.0345-.4623l-.0063-.7947s.312-.2362.4081-.9844c.1962.0567.3995-.2891.4129-.4686.0094-.1772-.026-.6624-.2655-.612.0488-.3662.0827-.6954.0661-.8718-.063-.6347-.6956-1.3097-1.6694-1.3097-.97218 0-1.60718.675-1.66706 1.3097-.01654.1764.01655.5056.06618.8718-.23872-.0504-.27575.4348-.26629.612.01024.1795.21666.5253.41283.4686.0969.7482.40889.9844.40889.9844l-.00631.7947s-.19932.1197-1.03522.4623c-.83354.3457-1.67653.5883-1.92548.9742-.22611.3489-.15994 2.0185-.15994 2.0185h3.15058 1.81602 3.3766s.0694-1.6696-.1559-2.0185c-.2498-.3859-1.0944-.6285-1.9263-.9742z"/><path d="m29.6593 23.4967c-.2529-.3859-1.0951-.6285-1.9295-.9742-.8351-.3426-1.0352-.4623-1.0352-.4623l-.0063-.7947s.3128-.2362.4097-.9844c.1962.0567.4026-.289.412-.4686.0103-.1764-.0268-.6623-.2655-.6119.0497-.3655.0859-.6954.0662-.8719-.0607-.6347-.6949-1.3097-1.6671-1.3097-.9745 0-1.6064.675-1.6694 1.3097-.0165.1765.0165.5064.0662.8719-.2395-.0504-.2758.4355-.2655.6119.0126.1796.2158.5253.4128.4686.0961.7482.4081.9844.4081.9844l-.0071.7947s-.1985.1197-1.0305.4623c-.8351.3457-1.6804.5883-1.9294.9742-.2261.3489-.1599 2.0185-.1599 2.0185h3.1505 1.816 3.3799s.0669-1.6696-.156-2.0185z"/><path d="m18.4015 18.0201h-.0591-.709-.0568v3.2022l-2.8677 1.7657.4065.6489 2.8741-1.7728 2.874 1.7728.4026-.6489-2.8646-1.7657z"/></g><g mask="url(#b)"><path clip-rule="evenodd" d="m12 24h32v-32.00001h-32z" fill="#268b42" fill-rule="evenodd"/></g><path d="m27.1221 12.0273h1.5928l2.9079-8.4272h-1.562l-2.0867 6.785h-.0679l-2.0929-6.785h-1.6114z" fill="#fefefe"/><circle cx="28" cy="8" r="7.5" stroke="#207335"/></svg>