<svg fill="none" height="46" viewBox="0 0 36 46" width="36" xmlns="http://www.w3.org/2000/svg" xmlns:xlink="http://www.w3.org/1999/xlink"><mask id="a" fill="#fff"><path clip-rule="evenodd" d="m21.781 35.6022c8.1257-1.737 14.219-8.958 14.219-17.6022 0-9.94113-8.0589-18-18-18-9.94113 0-18 8.05887-18 18 0 8.6442 6.09328 15.8652 14.219 17.6022l3.781 10.3978z" fill="#fff" fill-rule="evenodd"/></mask><ellipse cx="18" cy="43.5" fill="#000" fill-opacity=".1" rx="8" ry="2.5"/><path clip-rule="evenodd" d="m21.781 35.6022c8.1257-1.737 14.219-8.958 14.219-17.6022 0-9.94113-8.0589-18-18-18-9.94113 0-18 8.05887-18 18 0 8.6442 6.09328 15.8652 14.219 17.6022l3.781 10.3978z" fill="#3f74ba" fill-rule="evenodd"/><path d="m21.781 35.6022-.3136-1.4668c-.5053.108-.9195.4685-1.0961.9542zm-7.562 0 1.4097-.5126c-.1766-.4857-.5908-.8462-1.0961-.9542zm3.781 10.3978-1.4097.5126c.2156.5928.7789.9874 1.4097.9874s1.1941-.3946 1.4097-.9874zm16.5-28c0 7.922-5.5844 14.5432-13.0326 16.1354l.6272 2.9337c8.8033-1.8819 15.4054-9.7028 15.4054-19.0691zm-16.5-16.5c9.1127 0 16.5 7.3873 16.5 16.5h3c0-10.76955-8.7304-19.5-19.5-19.5zm-16.5 16.5c0-9.1127 7.3873-16.5 16.5-16.5v-3c-10.76955 0-19.5 8.73045-19.5 19.5zm13.0326 16.1354c-7.44816-1.5922-13.0326-8.2134-13.0326-16.1354h-3c0 9.3663 6.60211 17.1872 15.4054 19.0691zm4.8771 11.352-3.781-10.3978-2.8194 1.0252 3.781 10.3978zm.9616-10.3978-3.781 10.3978 2.8194 1.0252 3.781-10.3978z" fill="#3664a0" mask="url(#a)"/><g clip-rule="evenodd" fill="#fff" fill-rule="evenodd"><path d="m8.12132 14.3339c-.37895 6.4745 5.41558 7.0896 5.41558 7.0896.8588-7.4353-5.41558-7.0896-5.41558-7.0896z"/><path d="m27.2496 22.9232h-3.1939v-3.2124h-2.1288v3.2124h-3.1907v2.1414h3.1907v3.2124h2.1288v-3.2124h3.1939z"/><path d="m16.1512 29.464s-6.45632-18.0366 11.2441-18.8478c0 0 .1308 8.23-9.0444 6.5509 0 0-2.9678 2.1248-2.1997 12.2969z"/></g></svg>