<svg fill="none" height="46" viewBox="0 0 36 46" width="36" xmlns="http://www.w3.org/2000/svg" xmlns:xlink="http://www.w3.org/1999/xlink"><mask id="a" fill="#fff"><path clip-rule="evenodd" d="m21.781 35.6022c8.1257-1.737 14.219-8.958 14.219-17.6022 0-9.94113-8.0589-18-18-18-9.94113 0-18 8.05887-18 18 0 8.6442 6.09328 15.8652 14.219 17.6022l3.781 10.3978z" fill="#fff" fill-rule="evenodd"/></mask><mask id="b" height="16" maskUnits="userSpaceOnUse" width="16" x="20" y="0"><path d="m28 0c4.4183 0 8 3.58173 8 8 0 4.4183-3.5817 8-8 8s-8-3.5817-8-8c0-4.41827 3.5817-8 8-8z" fill="#fff"/></mask><ellipse cx="18" cy="43.5" fill="#000" fill-opacity=".1" rx="8" ry="2.5"/><path clip-rule="evenodd" d="m21.781 35.6022c8.1257-1.737 14.219-8.958 14.219-17.6022 0-9.94113-8.0589-18-18-18-9.94113 0-18 8.05887-18 18 0 8.6442 6.09328 15.8652 14.219 17.6022l3.781 10.3978z" fill="#4d9141" fill-rule="evenodd"/><path d="m21.781 35.6022-.3136-1.4668c-.5053.108-.9195.4685-1.0961.9542zm-7.562 0 1.4097-.5126c-.1766-.4857-.5908-.8462-1.0961-.9542zm3.781 10.3978-1.4097.5126c.2156.5928.7789.9874 1.4097.9874s1.1941-.3946 1.4097-.9874zm16.5-28c0 7.922-5.5844 14.5432-13.0326 16.1354l.6272 2.9337c8.8033-1.8819 15.4054-9.7028 15.4054-19.0691zm-16.5-16.5c9.1127 0 16.5 7.3873 16.5 16.5h3c0-10.76955-8.7304-19.5-19.5-19.5zm-16.5 16.5c0-9.1127 7.3873-16.5 16.5-16.5v-3c-10.76955 0-19.5 8.73045-19.5 19.5zm13.0326 16.1354c-7.44816-1.5922-13.0326-8.2134-13.0326-16.1354h-3c0 9.3663 6.60211 17.1872 15.4054 19.0691zm4.8771 11.352-3.781-10.3978-2.8194 1.0252 3.781 10.3978zm.9616-10.3978-3.781 10.3978 2.8194 1.0252 3.781-10.3978z" fill="#438039" mask="url(#a)"/><g clip-rule="evenodd" fill="#fff" fill-rule="evenodd"><path d="m24.0326 24.7402c.5688-4.8921-3.5933-4.666-3.5933-4.666-.2529 4.2603 3.5933 4.666 3.5933 4.666z"/><path d="m27.4086 20.4201c-2.6905 2.2345-2.4384 7.2668-2.4384 7.2668 1.0612-3.3727 2.4817-4.5463 2.8843-4.4297.1095.0299.1694.0764.1694.0764 3.5965.612 3.6863-4.3903 3.6863-4.3903-1.9728.1032-3.3436.6852-4.3016 1.4768z"/><path d="m29.142 16.2696-3.2538-5.2283-7.6003-.0859v-.0031h-.2592v.0031l-7.6019.0859-3.25375 5.2283s-.635 1.8029 1.71671 2.0723c0 0 2.16894.0898 2.80154-1.1704 0 0 .3593 1.2602 2.0784 1.2602 0 0 1.9861 0 2.2587-1.1712 0 0 .3293.9782 2.0003 1.0743v.0071l.1292-.0039.13.0039v-.0071c1.6695-.0961 1.9988-1.0743 1.9988-1.0743.2726 1.1712 2.2587 1.1712 2.2587 1.1712 1.7167 0 2.0791-1.2602 2.0791-1.2602.6319 1.2602 2.8008 1.1704 2.8008 1.1704 2.3486-.2694 1.7167-2.0723 1.7167-2.0723zm-13.6556-.4521s0 1.6226-1.8995 1.443c0 0-1.3543.0906-.9951-1.8021l1.1779-3.6051h2.2587zm6.9857 1.443c-1.8963.1796-1.8963-1.443-1.8963-1.443l-.542-3.9642h2.2587l1.1739 3.6051c.36 1.8927-.9943 1.8021-.9943 1.8021z"/><path d="m17.0498 26.7259v-4.6865h-3.253v4.6865h-1.9263c-.9178 0-1.5804-.2064-1.91284-.5923-.32932-.3757-.26629-.8349-.26235-.8475l.0063-5.5907h-1.08407v5.4607c-.02678.2229-.07012.9877.4987 1.6627.55228.6553 1.48036.9877 2.75426.9877h10.3617l.1671-1.0806z"/></g><g mask="url(#b)"><path clip-rule="evenodd" d="m12 24h32v-32.00001h-32z" fill="#268b42" fill-rule="evenodd"/></g><path d="m27.1221 12.0273h1.5928l2.9079-8.4272h-1.562l-2.0867 6.785h-.0679l-2.0929-6.785h-1.6114z" fill="#fefefe"/><circle cx="28" cy="8" r="7.5" stroke="#207335"/></svg>