<svg fill="none" height="46" viewBox="0 0 36 46" width="36" xmlns="http://www.w3.org/2000/svg" xmlns:xlink="http://www.w3.org/1999/xlink"><mask id="a" fill="#fff"><path clip-rule="evenodd" d="m21.781 35.6022c8.1257-1.737 14.219-8.958 14.219-17.6022 0-9.94113-8.0589-18-18-18-9.94113 0-18 8.05887-18 18 0 8.6442 6.09328 15.8652 14.219 17.6022l3.781 10.3978z" fill="#fff" fill-rule="evenodd"/></mask><mask id="b" height="16" maskUnits="userSpaceOnUse" width="16" x="20" y="0"><path d="m28 0c4.4183 0 8 3.58173 8 8 0 4.4183-3.5817 8-8 8s-8-3.5817-8-8c0-4.41827 3.5817-8 8-8z" fill="#fff"/></mask><ellipse cx="18" cy="43.5" fill="#000" fill-opacity=".1" rx="8" ry="2.5"/><path clip-rule="evenodd" d="m21.781 35.6022c8.1257-1.737 14.219-8.958 14.219-17.6022 0-9.94113-8.0589-18-18-18-9.94113 0-18 8.05887-18 18 0 8.6442 6.09328 15.8652 14.219 17.6022l3.781 10.3978z" fill="#006739" fill-rule="evenodd"/><path d="m21.781 35.6022-.3136-1.4668c-.5053.108-.9195.4685-1.0961.9542zm-7.562 0 1.4097-.5126c-.1766-.4857-.5908-.8462-1.0961-.9542zm3.781 10.3978-1.4097.5126c.2156.5928.7789.9874 1.4097.9874s1.1941-.3946 1.4097-.9874zm16.5-28c0 7.922-5.5844 14.5432-13.0326 16.1354l.6272 2.9337c8.8033-1.8819 15.4054-9.7028 15.4054-19.0691zm-16.5-16.5c9.1127 0 16.5 7.3873 16.5 16.5h3c0-10.76955-8.7304-19.5-19.5-19.5zm-16.5 16.5c0-9.1127 7.3873-16.5 16.5-16.5v-3c-10.76955 0-19.5 8.73045-19.5 19.5zm13.0326 16.1354c-7.44816-1.5922-13.0326-8.2134-13.0326-16.1354h-3c0 9.3663 6.60211 17.1872 15.4054 19.0691zm4.8771 11.352-3.781-10.3978-2.8194 1.0252 3.781 10.3978zm.9616-10.3978-3.781 10.3978 2.8194 1.0252 3.781-10.3978z" fill="#00542e" mask="url(#a)"/><path d="m17.9382 21.8184v-.193h1.1209v.0565l.0061.0002.3366 5.1324 2.5813-8.866s6.2187.2615 6.0119 8.1224c-1.3371 1.3107-2.2634 1.1375-3.4984 1.1784-.4291.7843-2.0958 1.8331-5.9902 1.7456-3.8946.0875-5.5612-.9613-5.9903-1.7456-1.2413-.0441-2.183.1323-3.51075-1.1784-.21305-7.8609 6.01185-8.1224 6.01185-8.1224l2.5813 8.866zm3.7667-9.0894c-2.972.4399-4.9679-2.4712-4.9679-2.4712l.3798-.0788c-.2574 1.2007-1.2846 1.7814-1.8767 2.0215.1621 2.2796 1.3991 5.1661 3.2505 5.1622.0034-.0002.0065-.0001.0096-.0001.003 0 .0062-.0001.0092-.0001 1.711.0039 2.8972-2.4604 3.1955-4.6335zm-6.5625 2.4395c-1.6643-.7846-.8162-2.4097-.6775-2.6525-.1529-1.1889-.0916-2.3007.2219-3.04589.987-2.35295 3.5558-2.46456 3.8033-2.46985.0008-.00026.0039-.00027.0101-.00018.0061-.00009.0092-.00008.0092-.00008.2433.00533 2.8161.11485 3.8041 2.47011.3135.74519.3748 1.85699.2219 3.04589.1387.2428.9869 1.8679-.6775 2.6525-.7078 1.8013-1.8766 3.2614-3.3577 3.2496-1.4812.0118-2.65-1.4483-3.3578-3.2496zm3.3578 5.833c-.3718 0-.6732-.3075-.6732-.6868s.3014-.6868.6732-.6868c.3717 0 .6731.3075.6731.6868s-.3014.6868-.6731.6868z" fill="#fff"/><g mask="url(#b)"><path clip-rule="evenodd" d="m12 24h32v-32.00001h-32z" fill="#268b42" fill-rule="evenodd"/></g><path d="m27.1221 12.0273h1.5928l2.9079-8.4272h-1.562l-2.0867 6.785h-.0679l-2.0929-6.785h-1.6114z" fill="#fefefe"/><circle cx="28" cy="8" r="7.5" stroke="#207335"/></svg>