<svg fill="none" height="46" viewBox="0 0 36 46" width="36" xmlns="http://www.w3.org/2000/svg" xmlns:xlink="http://www.w3.org/1999/xlink"><mask id="a" fill="#fff"><path clip-rule="evenodd" d="m21.781 35.6022c8.1257-1.737 14.219-8.958 14.219-17.6022 0-9.94113-8.0589-18-18-18-9.94113 0-18 8.05887-18 18 0 8.6442 6.09328 15.8652 14.219 17.6022l3.781 10.3978z" fill="#fff" fill-rule="evenodd"/></mask><ellipse cx="18" cy="43.5" fill="#000" fill-opacity=".1" rx="8" ry="2.5"/><path clip-rule="evenodd" d="m21.781 35.6022c8.1257-1.737 14.219-8.958 14.219-17.6022 0-9.94113-8.0589-18-18-18-9.94113 0-18 8.05887-18 18 0 8.6442 6.09328 15.8652 14.219 17.6022l3.781 10.3978z" fill="#268b42" fill-rule="evenodd"/><path d="m21.781 35.6022-.3136-1.4668c-.5053.108-.9195.4685-1.0961.9542zm-7.562 0 1.4097-.5126c-.1766-.4857-.5908-.8462-1.0961-.9542zm3.781 10.3978-1.4097.5126c.2156.5928.7789.9874 1.4097.9874s1.1941-.3946 1.4097-.9874zm16.5-28c0 7.922-5.5844 14.5432-13.0326 16.1354l.6272 2.9337c8.8033-1.8819 15.4054-9.7028 15.4054-19.0691zm-16.5-16.5c9.1127 0 16.5 7.3873 16.5 16.5h3c0-10.76955-8.7304-19.5-19.5-19.5zm-16.5 16.5c0-9.1127 7.3873-16.5 16.5-16.5v-3c-10.76955 0-19.5 8.73045-19.5 19.5zm13.0326 16.1354c-7.44816-1.5922-13.0326-8.2134-13.0326-16.1354h-3c0 9.3663 6.60211 17.1872 15.4054 19.0691zm4.8771 11.352-3.781-10.3978-2.8194 1.0252 3.781 10.3978zm.9616-10.3978-3.781 10.3978 2.8194 1.0252 3.781-10.3978z" fill="#207335" mask="url(#a)"/><g clip-rule="evenodd" fill="#fff" fill-rule="evenodd"><path d="m19.1265 30.38s-2.5098-15.4977 10.3448-20.38c.0421.106.0816.2129.117.3223.6895 1.9804 1.0667 4.1232 1.0415 6.2197-.0211 1.4568-.256 2.9246-.8243 4.2788-.7114 1.6774-2.301 2.3271-3.9284 2.9314-.4732.1742-.9598.3055-1.4397.462-.8959.2946-1.8169.6826-2.2893 1.5528 0 0 .0994-1.4711 3.0142-4.2998 0 0 1.9911-1.5638 2.3607-4.9825 0 0-5.9836.9452-8.3965 13.8953z"/><path d="m17.487 30.38s2.5098-15.4977-10.34482-20.38c-.04294.106-.08166.2129-.11787.3223-.6887 1.9804-1.06925 4.1232-1.04063 6.2197.02105 1.4568.25258 2.9246.82426 4.2788.71143 1.6774 2.30015 2.3271 3.92846 2.9314.4732.1742.9598.3055 1.4389.462.8966.2946 1.8177.6826 2.29 1.5528 0 0-.0993-1.4711-3.015-4.2998 0 0-1.99028-1.5638-2.35989-4.9825 0 0 5.98279.9452 8.39659 13.8953z"/></g></svg>